# xmcd
#
# Track frame offsets:
#	150
#	22765
#	38833
#	61919
#	77582
#	91851
#	106941
#	128640
#	144009
#	157364
#
# Disc length: 2285 seconds
# Revision: 0
# Processed by: cddbd v1.5.2PL0 Copyright (c) Steve Scherf et al.
# Submitted via: dBpowerAMP V12.0
#
DISCID=6e08eb0a
DTITLE=Lloyd Jones - Doin’ What It Takes
DYEAR=2012
DGENRE=Blues
TTITLE0=Bend in the River
TTITLE1=I'll Be Right on Down
TTITLE2=Without You
TTITLE3=Doing What It Takes
TTITLE4=I Can't Stop
TTITLE5=Never Again
TTITLE6=Give A Little
TTITLE7=My Wife Can't Cook
TTITLE8=Worried Life Blues
TTITLE9=Ruby Do
EXTD=
EXTT0=
EXTT1=
EXTT2=
EXTT3=
EXTT4=
EXTT5=
EXTT6=
EXTT7=
EXTT8=
EXTT9=
PLAYORDER=
